<mxfile host="app.diagrams.net" agent="Mozilla/5.0 (Windows NT 10.0; Win64; x64) AppleWebKit/537.36 (KHTML, like Gecko) Chrome/133.0.0.0 Safari/537.36" version="26.0.16" pages="2">
  <diagram name="페이지-1" id="aUKVWbxgHGrGfHiceO4P">
    <mxGraphModel dx="676" dy="1060" grid="1" gridSize="10" guides="1" tooltips="1" connect="1" arrows="1" fold="1" page="1" pageScale="1" pageWidth="827" pageHeight="1169" math="0" shadow="0">
      <root>
        <mxCell id="0" />
        <mxCell id="1" parent="0" />
        <mxCell id="V1jE-XbK7gzUIDMY-3G8-3" value="STM32F407IG" style="rounded=0;whiteSpace=wrap;html=1;" parent="1" vertex="1">
          <mxGeometry x="300" y="310" width="120" height="440" as="geometry" />
        </mxCell>
        <mxCell id="V1jE-XbK7gzUIDMY-3G8-5" value="S" style="ellipse;whiteSpace=wrap;html=1;aspect=fixed;direction=south;fillColor=#d5e8d4;strokeColor=#82b366;" parent="1" vertex="1">
          <mxGeometry x="500" y="610" width="40" height="40" as="geometry" />
        </mxCell>
        <mxCell id="V1jE-XbK7gzUIDMY-3G8-7" value="S" style="ellipse;whiteSpace=wrap;html=1;aspect=fixed;direction=south;fillColor=#d5e8d4;strokeColor=#82b366;" parent="1" vertex="1">
          <mxGeometry x="500" y="510" width="40" height="40" as="geometry" />
        </mxCell>
        <mxCell id="V1jE-XbK7gzUIDMY-3G8-9" value="S" style="ellipse;whiteSpace=wrap;html=1;aspect=fixed;direction=south;fillColor=#d5e8d4;strokeColor=#82b366;" parent="1" vertex="1">
          <mxGeometry x="500" y="410" width="40" height="40" as="geometry" />
        </mxCell>
        <mxCell id="V1jE-XbK7gzUIDMY-3G8-11" value="S" style="ellipse;whiteSpace=wrap;html=1;aspect=fixed;direction=south;fillColor=#d5e8d4;strokeColor=#82b366;" parent="1" vertex="1">
          <mxGeometry x="500" y="310" width="40" height="40" as="geometry" />
        </mxCell>
        <mxCell id="V1jE-XbK7gzUIDMY-3G8-12" value="" style="endArrow=blockThin;html=1;rounded=0;exitX=0.5;exitY=1;exitDx=0;exitDy=0;endFill=1;strokeColor=#0000FF;entryX=1;entryY=0.045;entryDx=0;entryDy=0;entryPerimeter=0;" parent="1" source="V1jE-XbK7gzUIDMY-3G8-11" target="V1jE-XbK7gzUIDMY-3G8-3" edge="1">
          <mxGeometry width="50" height="50" relative="1" as="geometry">
            <mxPoint x="530" y="350" as="sourcePoint" />
            <mxPoint x="430" y="330" as="targetPoint" />
          </mxGeometry>
        </mxCell>
        <mxCell id="V1jE-XbK7gzUIDMY-3G8-14" value="" style="endArrow=blockThin;html=1;rounded=0;exitX=0.5;exitY=1;exitDx=0;exitDy=0;endFill=1;strokeColor=#0000FF;entryX=1;entryY=0.273;entryDx=0;entryDy=0;entryPerimeter=0;" parent="1" source="V1jE-XbK7gzUIDMY-3G8-9" target="V1jE-XbK7gzUIDMY-3G8-3" edge="1">
          <mxGeometry width="50" height="50" relative="1" as="geometry">
            <mxPoint x="510" y="390" as="sourcePoint" />
            <mxPoint x="430" y="430" as="targetPoint" />
          </mxGeometry>
        </mxCell>
        <mxCell id="V1jE-XbK7gzUIDMY-3G8-16" value="" style="endArrow=blockThin;html=1;rounded=0;exitX=0.5;exitY=1;exitDx=0;exitDy=0;endFill=1;strokeColor=#0000FF;entryX=1;entryY=0.5;entryDx=0;entryDy=0;" parent="1" source="V1jE-XbK7gzUIDMY-3G8-7" target="V1jE-XbK7gzUIDMY-3G8-3" edge="1">
          <mxGeometry width="50" height="50" relative="1" as="geometry">
            <mxPoint x="510" y="490" as="sourcePoint" />
            <mxPoint x="430" y="530" as="targetPoint" />
          </mxGeometry>
        </mxCell>
        <mxCell id="V1jE-XbK7gzUIDMY-3G8-18" value="" style="endArrow=blockThin;html=1;rounded=0;exitX=0.5;exitY=1;exitDx=0;exitDy=0;endFill=1;strokeColor=#0000FF;entryX=1;entryY=0.727;entryDx=0;entryDy=0;entryPerimeter=0;" parent="1" source="V1jE-XbK7gzUIDMY-3G8-5" target="V1jE-XbK7gzUIDMY-3G8-3" edge="1">
          <mxGeometry width="50" height="50" relative="1" as="geometry">
            <mxPoint x="510" y="590" as="sourcePoint" />
            <mxPoint x="430" y="630" as="targetPoint" />
            <Array as="points" />
          </mxGeometry>
        </mxCell>
        <mxCell id="V1jE-XbK7gzUIDMY-3G8-20" value="SW0(PH8)" style="text;html=1;align=left;verticalAlign=middle;whiteSpace=wrap;rounded=0;" parent="1" vertex="1">
          <mxGeometry x="600" y="315" width="130" height="30" as="geometry" />
        </mxCell>
        <mxCell id="V1jE-XbK7gzUIDMY-3G8-21" value="LED0(PG0)" style="text;html=1;align=left;verticalAlign=middle;whiteSpace=wrap;rounded=0;" parent="1" vertex="1">
          <mxGeometry x="600" y="365" width="130" height="30" as="geometry" />
        </mxCell>
        <mxCell id="V1jE-XbK7gzUIDMY-3G8-22" value="SW1(PH9)" style="text;html=1;align=left;verticalAlign=middle;whiteSpace=wrap;rounded=0;" parent="1" vertex="1">
          <mxGeometry x="600" y="415" width="130" height="30" as="geometry" />
        </mxCell>
        <mxCell id="V1jE-XbK7gzUIDMY-3G8-23" value="LED1(PG1)" style="text;html=1;align=left;verticalAlign=middle;whiteSpace=wrap;rounded=0;" parent="1" vertex="1">
          <mxGeometry x="600" y="465" width="130" height="30" as="geometry" />
        </mxCell>
        <mxCell id="V1jE-XbK7gzUIDMY-3G8-24" value="SW2(PH10)" style="text;html=1;align=left;verticalAlign=middle;whiteSpace=wrap;rounded=0;" parent="1" vertex="1">
          <mxGeometry x="600" y="515" width="130" height="30" as="geometry" />
        </mxCell>
        <mxCell id="V1jE-XbK7gzUIDMY-3G8-25" value="LED2(PG2)" style="text;html=1;align=left;verticalAlign=middle;whiteSpace=wrap;rounded=0;" parent="1" vertex="1">
          <mxGeometry x="600" y="565" width="130" height="30" as="geometry" />
        </mxCell>
        <mxCell id="V1jE-XbK7gzUIDMY-3G8-26" value="SW3(PH11)" style="text;html=1;align=left;verticalAlign=middle;whiteSpace=wrap;rounded=0;" parent="1" vertex="1">
          <mxGeometry x="600" y="615" width="130" height="30" as="geometry" />
        </mxCell>
        <mxCell id="V1jE-XbK7gzUIDMY-3G8-27" value="LED3(PG3)" style="text;html=1;align=left;verticalAlign=middle;whiteSpace=wrap;rounded=0;" parent="1" vertex="1">
          <mxGeometry x="600" y="665" width="130" height="30" as="geometry" />
        </mxCell>
        <mxCell id="V1jE-XbK7gzUIDMY-3G8-30" value="L" style="ellipse;whiteSpace=wrap;html=1;aspect=fixed;direction=south;fillColor=#fff2cc;strokeColor=#d6b656;" parent="1" vertex="1">
          <mxGeometry x="180" y="610" width="40" height="40" as="geometry" />
        </mxCell>
        <mxCell id="V1jE-XbK7gzUIDMY-3G8-32" value="L" style="ellipse;whiteSpace=wrap;html=1;aspect=fixed;direction=south;fillColor=#fff2cc;strokeColor=#d6b656;" parent="1" vertex="1">
          <mxGeometry x="180" y="510" width="40" height="40" as="geometry" />
        </mxCell>
        <mxCell id="V1jE-XbK7gzUIDMY-3G8-34" value="L" style="ellipse;whiteSpace=wrap;html=1;aspect=fixed;direction=south;fillColor=#fff2cc;strokeColor=#d6b656;" parent="1" vertex="1">
          <mxGeometry x="180" y="410" width="40" height="40" as="geometry" />
        </mxCell>
        <mxCell id="V1jE-XbK7gzUIDMY-3G8-36" value="L" style="ellipse;whiteSpace=wrap;html=1;aspect=fixed;direction=south;fillColor=#fff2cc;strokeColor=#d6b656;" parent="1" vertex="1">
          <mxGeometry x="180" y="310" width="40" height="40" as="geometry" />
        </mxCell>
        <mxCell id="V1jE-XbK7gzUIDMY-3G8-37" value="&lt;div&gt;Water/Coffee&lt;/div&gt;: LED4(PG4)" style="text;html=1;align=right;verticalAlign=middle;whiteSpace=wrap;rounded=0;" parent="1" vertex="1">
          <mxGeometry x="50" y="315" width="130" height="30" as="geometry" />
        </mxCell>
        <mxCell id="V1jE-XbK7gzUIDMY-3G8-39" value="&lt;div&gt;Cream&lt;/div&gt;: LED5(PG5)" style="text;html=1;align=right;verticalAlign=middle;whiteSpace=wrap;rounded=0;" parent="1" vertex="1">
          <mxGeometry x="50" y="415" width="130" height="30" as="geometry" />
        </mxCell>
        <mxCell id="V1jE-XbK7gzUIDMY-3G8-41" value="&lt;div&gt;Sugar&lt;/div&gt;: LED6(PG6)" style="text;html=1;align=right;verticalAlign=middle;whiteSpace=wrap;rounded=0;" parent="1" vertex="1">
          <mxGeometry x="50" y="515" width="130" height="30" as="geometry" />
        </mxCell>
        <mxCell id="V1jE-XbK7gzUIDMY-3G8-43" value="&lt;div&gt;Cup&lt;/div&gt;: LED7(PG7)" style="text;html=1;align=right;verticalAlign=middle;whiteSpace=wrap;rounded=0;" parent="1" vertex="1">
          <mxGeometry x="50" y="615" width="130" height="30" as="geometry" />
        </mxCell>
        <mxCell id="V1jE-XbK7gzUIDMY-3G8-45" value="S" style="ellipse;whiteSpace=wrap;html=1;aspect=fixed;direction=south;fillColor=#f5f5f5;strokeColor=#666666;fontColor=#333333;" parent="1" vertex="1">
          <mxGeometry x="180" y="710" width="40" height="40" as="geometry" />
        </mxCell>
        <mxCell id="V1jE-XbK7gzUIDMY-3G8-46" value="BUZ&lt;div&gt;: Buzzer(PF9)&lt;/div&gt;" style="text;html=1;align=right;verticalAlign=middle;whiteSpace=wrap;rounded=0;" parent="1" vertex="1">
          <mxGeometry x="50" y="715" width="130" height="30" as="geometry" />
        </mxCell>
        <mxCell id="V1jE-XbK7gzUIDMY-3G8-47" value="" style="endArrow=blockThin;html=1;rounded=0;exitX=0.5;exitY=1;exitDx=0;exitDy=0;entryX=1;entryY=0.051;entryDx=0;entryDy=0;entryPerimeter=0;endFill=1;strokeColor=#FF0000;fillColor=#e51400;" parent="1" edge="1">
          <mxGeometry width="50" height="50" relative="1" as="geometry">
            <mxPoint x="300" y="330" as="sourcePoint" />
            <mxPoint x="220" y="330" as="targetPoint" />
          </mxGeometry>
        </mxCell>
        <mxCell id="V1jE-XbK7gzUIDMY-3G8-48" value="" style="endArrow=blockThin;html=1;rounded=0;entryX=0.5;entryY=1;entryDx=0;entryDy=0;endFill=1;strokeColor=#FF0000;fillColor=#e51400;exitX=1;exitY=0.159;exitDx=0;exitDy=0;exitPerimeter=0;" parent="1" source="V1jE-XbK7gzUIDMY-3G8-3" target="_3TxJ0h6Oim9gM3xzcCF-4" edge="1">
          <mxGeometry width="50" height="50" relative="1" as="geometry">
            <mxPoint x="430" y="380" as="sourcePoint" />
            <mxPoint x="220" y="380" as="targetPoint" />
          </mxGeometry>
        </mxCell>
        <mxCell id="V1jE-XbK7gzUIDMY-3G8-49" value="" style="endArrow=blockThin;html=1;rounded=0;exitX=0.5;exitY=1;exitDx=0;exitDy=0;entryX=1;entryY=0.308;entryDx=0;entryDy=0;entryPerimeter=0;endFill=1;strokeColor=#FF0000;fillColor=#e51400;" parent="1" edge="1">
          <mxGeometry width="50" height="50" relative="1" as="geometry">
            <mxPoint x="300" y="430" as="sourcePoint" />
            <mxPoint x="220" y="430" as="targetPoint" />
          </mxGeometry>
        </mxCell>
        <mxCell id="V1jE-XbK7gzUIDMY-3G8-51" value="" style="endArrow=blockThin;html=1;rounded=0;exitX=0.5;exitY=1;exitDx=0;exitDy=0;entryX=1;entryY=0.564;entryDx=0;entryDy=0;entryPerimeter=0;endFill=1;strokeColor=#FF0000;fillColor=#e51400;" parent="1" edge="1">
          <mxGeometry width="50" height="50" relative="1" as="geometry">
            <mxPoint x="300" y="530" as="sourcePoint" />
            <mxPoint x="220" y="530" as="targetPoint" />
          </mxGeometry>
        </mxCell>
        <mxCell id="V1jE-XbK7gzUIDMY-3G8-53" value="" style="endArrow=blockThin;html=1;rounded=0;exitX=0.5;exitY=1;exitDx=0;exitDy=0;entryX=1;entryY=0.821;entryDx=0;entryDy=0;entryPerimeter=0;endFill=1;strokeColor=#FF0000;fillColor=#e51400;" parent="1" edge="1">
          <mxGeometry width="50" height="50" relative="1" as="geometry">
            <mxPoint x="300" y="630" as="sourcePoint" />
            <mxPoint x="220" y="630" as="targetPoint" />
          </mxGeometry>
        </mxCell>
        <mxCell id="V1jE-XbK7gzUIDMY-3G8-55" value="" style="endArrow=blockThin;html=1;rounded=0;exitX=0.5;exitY=1;exitDx=0;exitDy=0;entryX=1;entryY=0.949;entryDx=0;entryDy=0;entryPerimeter=0;endFill=1;strokeColor=#FF0000;fillColor=#e51400;" parent="1" edge="1">
          <mxGeometry width="50" height="50" relative="1" as="geometry">
            <mxPoint x="300" y="729.66" as="sourcePoint" />
            <mxPoint x="220" y="729.66" as="targetPoint" />
          </mxGeometry>
        </mxCell>
        <mxCell id="V1jE-XbK7gzUIDMY-3G8-56" value="S" style="ellipse;whiteSpace=wrap;html=1;aspect=fixed;direction=south;fillColor=#d5e8d4;strokeColor=#82b366;" parent="1" vertex="1">
          <mxGeometry x="300" y="800" width="40" height="40" as="geometry" />
        </mxCell>
        <mxCell id="V1jE-XbK7gzUIDMY-3G8-57" value="L" style="ellipse;whiteSpace=wrap;html=1;aspect=fixed;direction=south;fillColor=#fff2cc;strokeColor=#d6b656;" parent="1" vertex="1">
          <mxGeometry x="300" y="850" width="40" height="40" as="geometry" />
        </mxCell>
        <mxCell id="V1jE-XbK7gzUIDMY-3G8-58" value="S" style="ellipse;whiteSpace=wrap;html=1;aspect=fixed;direction=south;fillColor=#f5f5f5;strokeColor=#666666;fontColor=#333333;" parent="1" vertex="1">
          <mxGeometry x="300" y="900" width="40" height="40" as="geometry" />
        </mxCell>
        <mxCell id="V1jE-XbK7gzUIDMY-3G8-59" value="Buzzer" style="text;html=1;align=left;verticalAlign=middle;whiteSpace=wrap;rounded=0;" parent="1" vertex="1">
          <mxGeometry x="340" y="905" width="130" height="30" as="geometry" />
        </mxCell>
        <mxCell id="V1jE-XbK7gzUIDMY-3G8-60" value="LED" style="text;html=1;align=left;verticalAlign=middle;whiteSpace=wrap;rounded=0;" parent="1" vertex="1">
          <mxGeometry x="340" y="855" width="130" height="30" as="geometry" />
        </mxCell>
        <mxCell id="V1jE-XbK7gzUIDMY-3G8-61" value="Input SW" style="text;html=1;align=left;verticalAlign=middle;whiteSpace=wrap;rounded=0;" parent="1" vertex="1">
          <mxGeometry x="340" y="805" width="130" height="30" as="geometry" />
        </mxCell>
        <mxCell id="V1jE-XbK7gzUIDMY-3G8-62" value="" style="endArrow=blockThin;html=1;rounded=0;exitX=0;exitY=0.5;exitDx=0;exitDy=0;endFill=1;strokeColor=#0000FF;entryX=1;entryY=0.841;entryDx=0;entryDy=0;entryPerimeter=0;" parent="1" source="V1jE-XbK7gzUIDMY-3G8-64" edge="1">
          <mxGeometry width="50" height="50" relative="1" as="geometry">
            <mxPoint x="380" y="960" as="sourcePoint" />
            <mxPoint x="300" y="960" as="targetPoint" />
          </mxGeometry>
        </mxCell>
        <mxCell id="V1jE-XbK7gzUIDMY-3G8-63" value="" style="endArrow=blockThin;html=1;rounded=0;exitX=0;exitY=0.5;exitDx=0;exitDy=0;entryX=1;entryY=0.949;entryDx=0;entryDy=0;entryPerimeter=0;endFill=1;strokeColor=#FF0000;fillColor=#e51400;" parent="1" source="V1jE-XbK7gzUIDMY-3G8-65" edge="1">
          <mxGeometry width="50" height="50" relative="1" as="geometry">
            <mxPoint x="380" y="990" as="sourcePoint" />
            <mxPoint x="300" y="990" as="targetPoint" />
          </mxGeometry>
        </mxCell>
        <mxCell id="V1jE-XbK7gzUIDMY-3G8-64" value="Digital Input" style="text;html=1;align=left;verticalAlign=middle;whiteSpace=wrap;rounded=0;" parent="1" vertex="1">
          <mxGeometry x="340" y="950" width="130" height="20" as="geometry" />
        </mxCell>
        <mxCell id="V1jE-XbK7gzUIDMY-3G8-65" value="Digital Output" style="text;html=1;align=left;verticalAlign=middle;whiteSpace=wrap;rounded=0;" parent="1" vertex="1">
          <mxGeometry x="340" y="980" width="130" height="20" as="geometry" />
        </mxCell>
        <mxCell id="_3TxJ0h6Oim9gM3xzcCF-1" value="L" style="ellipse;whiteSpace=wrap;html=1;aspect=fixed;direction=south;fillColor=#fff2cc;strokeColor=#d6b656;" parent="1" vertex="1">
          <mxGeometry x="500" y="660" width="40" height="40" as="geometry" />
        </mxCell>
        <mxCell id="_3TxJ0h6Oim9gM3xzcCF-2" value="L" style="ellipse;whiteSpace=wrap;html=1;aspect=fixed;direction=south;fillColor=#fff2cc;strokeColor=#d6b656;" parent="1" vertex="1">
          <mxGeometry x="500" y="560" width="40" height="40" as="geometry" />
        </mxCell>
        <mxCell id="_3TxJ0h6Oim9gM3xzcCF-3" value="L" style="ellipse;whiteSpace=wrap;html=1;aspect=fixed;direction=south;fillColor=#fff2cc;strokeColor=#d6b656;" parent="1" vertex="1">
          <mxGeometry x="500" y="460" width="40" height="40" as="geometry" />
        </mxCell>
        <mxCell id="_3TxJ0h6Oim9gM3xzcCF-4" value="L" style="ellipse;whiteSpace=wrap;html=1;aspect=fixed;direction=south;fillColor=#fff2cc;strokeColor=#d6b656;" parent="1" vertex="1">
          <mxGeometry x="500" y="360" width="40" height="40" as="geometry" />
        </mxCell>
        <mxCell id="_3TxJ0h6Oim9gM3xzcCF-5" value="" style="endArrow=blockThin;html=1;rounded=0;entryX=0.5;entryY=1;entryDx=0;entryDy=0;endFill=1;strokeColor=#FF0000;fillColor=#e51400;exitX=1;exitY=0.159;exitDx=0;exitDy=0;exitPerimeter=0;" parent="1" edge="1">
          <mxGeometry width="50" height="50" relative="1" as="geometry">
            <mxPoint x="420" y="479.71" as="sourcePoint" />
            <mxPoint x="500" y="479.71" as="targetPoint" />
          </mxGeometry>
        </mxCell>
        <mxCell id="_3TxJ0h6Oim9gM3xzcCF-6" value="" style="endArrow=blockThin;html=1;rounded=0;entryX=0.5;entryY=1;entryDx=0;entryDy=0;endFill=1;strokeColor=#FF0000;fillColor=#e51400;exitX=1;exitY=0.159;exitDx=0;exitDy=0;exitPerimeter=0;" parent="1" edge="1">
          <mxGeometry width="50" height="50" relative="1" as="geometry">
            <mxPoint x="420" y="579.71" as="sourcePoint" />
            <mxPoint x="500" y="579.71" as="targetPoint" />
          </mxGeometry>
        </mxCell>
        <mxCell id="_3TxJ0h6Oim9gM3xzcCF-7" value="" style="endArrow=blockThin;html=1;rounded=0;entryX=0.5;entryY=1;entryDx=0;entryDy=0;endFill=1;strokeColor=#FF0000;fillColor=#e51400;exitX=1;exitY=0.159;exitDx=0;exitDy=0;exitPerimeter=0;" parent="1" edge="1">
          <mxGeometry width="50" height="50" relative="1" as="geometry">
            <mxPoint x="420" y="679.71" as="sourcePoint" />
            <mxPoint x="500" y="679.71" as="targetPoint" />
          </mxGeometry>
        </mxCell>
        <mxCell id="_3TxJ0h6Oim9gM3xzcCF-10" value="Coin" style="text;html=1;align=left;verticalAlign=middle;whiteSpace=wrap;rounded=0;" parent="1" vertex="1">
          <mxGeometry x="560" y="345" width="40" height="30" as="geometry" />
        </mxCell>
        <mxCell id="_3TxJ0h6Oim9gM3xzcCF-12" value="Black" style="text;html=1;align=left;verticalAlign=middle;whiteSpace=wrap;rounded=0;" parent="1" vertex="1">
          <mxGeometry x="560" y="440" width="40" height="30" as="geometry" />
        </mxCell>
        <mxCell id="_3TxJ0h6Oim9gM3xzcCF-13" value="Sugar" style="text;html=1;align=left;verticalAlign=middle;whiteSpace=wrap;rounded=0;" parent="1" vertex="1">
          <mxGeometry x="560" y="540" width="40" height="30" as="geometry" />
        </mxCell>
        <mxCell id="_3TxJ0h6Oim9gM3xzcCF-14" value="Mix" style="text;html=1;align=left;verticalAlign=middle;whiteSpace=wrap;rounded=0;" parent="1" vertex="1">
          <mxGeometry x="560" y="640" width="40" height="30" as="geometry" />
        </mxCell>
      </root>
    </mxGraphModel>
  </diagram>
  <diagram id="2HzhvDpg0K9pylNhXQQb" name="페이지-2">
    <mxGraphModel dx="676" dy="1060" grid="0" gridSize="10" guides="1" tooltips="1" connect="1" arrows="1" fold="1" page="1" pageScale="1" pageWidth="827" pageHeight="1169" math="0" shadow="0">
      <root>
        <mxCell id="0" />
        <mxCell id="1" parent="0" />
        <mxCell id="q8cD7jAWVQ_bWqAsikVx-1" value="" style="endArrow=classic;html=1;rounded=0;" edge="1" parent="1">
          <mxGeometry width="50" height="50" relative="1" as="geometry">
            <mxPoint x="120" y="320" as="sourcePoint" />
            <mxPoint x="680" y="320" as="targetPoint" />
          </mxGeometry>
        </mxCell>
        <mxCell id="q8cD7jAWVQ_bWqAsikVx-4" value="Coin SW&lt;div&gt;→ LED ON&lt;/div&gt;&lt;div&gt;→ BUZ 1회&lt;/div&gt;" style="rounded=0;whiteSpace=wrap;html=1;align=left;flipV=1;flipH=1;" vertex="1" parent="1">
          <mxGeometry x="90" y="340" width="80" height="50" as="geometry" />
        </mxCell>
        <mxCell id="q8cD7jAWVQ_bWqAsikVx-5" value="" style="endArrow=none;html=1;rounded=0;strokeColor=#FF0000;" edge="1" parent="1">
          <mxGeometry width="50" height="50" relative="1" as="geometry">
            <mxPoint x="129.90666666666664" y="310" as="sourcePoint" />
            <mxPoint x="129.90666666666664" y="330" as="targetPoint" />
          </mxGeometry>
        </mxCell>
        <mxCell id="q8cD7jAWVQ_bWqAsikVx-6" value="커피 SW&lt;div&gt;→ LED ON&lt;/div&gt;&lt;div&gt;→ BUZ 1회&lt;/div&gt;" style="rounded=0;whiteSpace=wrap;html=1;align=left;flipV=1;flipH=1;" vertex="1" parent="1">
          <mxGeometry x="190" y="340" width="80" height="50" as="geometry" />
        </mxCell>
        <mxCell id="q8cD7jAWVQ_bWqAsikVx-7" value="" style="endArrow=none;html=1;rounded=0;strokeColor=#FF0000;" edge="1" parent="1">
          <mxGeometry width="50" height="50" relative="1" as="geometry">
            <mxPoint x="229.85666666666663" y="310" as="sourcePoint" />
            <mxPoint x="229.85666666666663" y="330" as="targetPoint" />
          </mxGeometry>
        </mxCell>
        <mxCell id="q8cD7jAWVQ_bWqAsikVx-8" value="Cup&lt;div&gt;LED&lt;/div&gt;&lt;div&gt;ON&lt;/div&gt;" style="rounded=0;whiteSpace=wrap;html=1;align=left;flipV=1;flipH=1;" vertex="1" parent="1">
          <mxGeometry x="290" y="340" width="40" height="50" as="geometry" />
        </mxCell>
        <mxCell id="q8cD7jAWVQ_bWqAsikVx-9" value="" style="endArrow=none;html=1;rounded=0;strokeColor=#FF0000;" edge="1" parent="1">
          <mxGeometry width="50" height="50" relative="1" as="geometry">
            <mxPoint x="309.76666666666665" y="310" as="sourcePoint" />
            <mxPoint x="309.76666666666665" y="330" as="targetPoint" />
          </mxGeometry>
        </mxCell>
        <mxCell id="q8cD7jAWVQ_bWqAsikVx-10" value="Cup&lt;div&gt;LED&lt;/div&gt;&lt;div&gt;OFF&lt;/div&gt;" style="rounded=0;whiteSpace=wrap;html=1;align=left;flipV=1;flipH=1;" vertex="1" parent="1">
          <mxGeometry x="350" y="340" width="40" height="50" as="geometry" />
        </mxCell>
        <mxCell id="q8cD7jAWVQ_bWqAsikVx-11" value="" style="endArrow=none;html=1;rounded=0;strokeColor=#FF0000;" edge="1" parent="1">
          <mxGeometry width="50" height="50" relative="1" as="geometry">
            <mxPoint x="369.76666666666665" y="310" as="sourcePoint" />
            <mxPoint x="369.76666666666665" y="330" as="targetPoint" />
          </mxGeometry>
        </mxCell>
        <mxCell id="q8cD7jAWVQ_bWqAsikVx-12" value="W/C&lt;br&gt;&lt;div&gt;LED&lt;/div&gt;&lt;div&gt;ON&lt;/div&gt;" style="rounded=0;whiteSpace=wrap;html=1;align=left;flipV=1;flipH=1;" vertex="1" parent="1">
          <mxGeometry x="410" y="340" width="40" height="50" as="geometry" />
        </mxCell>
        <mxCell id="q8cD7jAWVQ_bWqAsikVx-13" value="" style="endArrow=none;html=1;rounded=0;strokeColor=#FF0000;" edge="1" parent="1">
          <mxGeometry width="50" height="50" relative="1" as="geometry">
            <mxPoint x="429.76666666666665" y="310" as="sourcePoint" />
            <mxPoint x="429.76666666666665" y="330" as="targetPoint" />
          </mxGeometry>
        </mxCell>
        <mxCell id="q8cD7jAWVQ_bWqAsikVx-14" value="W/C&lt;br&gt;&lt;div&gt;LED&lt;/div&gt;&lt;div&gt;OFF&lt;/div&gt;" style="rounded=0;whiteSpace=wrap;html=1;align=left;flipV=1;flipH=1;" vertex="1" parent="1">
          <mxGeometry x="470" y="340" width="40" height="50" as="geometry" />
        </mxCell>
        <mxCell id="q8cD7jAWVQ_bWqAsikVx-15" value="" style="endArrow=none;html=1;rounded=0;strokeColor=#FF0000;" edge="1" parent="1">
          <mxGeometry width="50" height="50" relative="1" as="geometry">
            <mxPoint x="489.76666666666665" y="310" as="sourcePoint" />
            <mxPoint x="489.76666666666665" y="330" as="targetPoint" />
          </mxGeometry>
        </mxCell>
        <mxCell id="q8cD7jAWVQ_bWqAsikVx-16" value="W/C&lt;br&gt;&lt;div&gt;LED&lt;/div&gt;&lt;div&gt;ON&lt;/div&gt;" style="rounded=0;whiteSpace=wrap;html=1;align=left;flipV=1;flipH=1;" vertex="1" parent="1">
          <mxGeometry x="530" y="340" width="40" height="50" as="geometry" />
        </mxCell>
        <mxCell id="q8cD7jAWVQ_bWqAsikVx-17" value="" style="endArrow=none;html=1;rounded=0;strokeColor=#FF0000;" edge="1" parent="1">
          <mxGeometry width="50" height="50" relative="1" as="geometry">
            <mxPoint x="549.7666666666667" y="310" as="sourcePoint" />
            <mxPoint x="549.7666666666667" y="330" as="targetPoint" />
          </mxGeometry>
        </mxCell>
        <mxCell id="q8cD7jAWVQ_bWqAsikVx-18" value="W/C&lt;br&gt;&lt;div&gt;LED&lt;/div&gt;&lt;div&gt;OFF&lt;/div&gt;" style="rounded=0;whiteSpace=wrap;html=1;align=left;flipV=1;flipH=1;" vertex="1" parent="1">
          <mxGeometry x="590" y="340" width="40" height="50" as="geometry" />
        </mxCell>
        <mxCell id="q8cD7jAWVQ_bWqAsikVx-19" value="" style="endArrow=none;html=1;rounded=0;strokeColor=#FF0000;" edge="1" parent="1">
          <mxGeometry width="50" height="50" relative="1" as="geometry">
            <mxPoint x="609.7666666666667" y="310" as="sourcePoint" />
            <mxPoint x="609.7666666666667" y="330" as="targetPoint" />
          </mxGeometry>
        </mxCell>
        <mxCell id="q8cD7jAWVQ_bWqAsikVx-20" value="1s" style="text;html=1;align=center;verticalAlign=middle;whiteSpace=wrap;rounded=0;" vertex="1" parent="1">
          <mxGeometry x="240" y="300" width="60" height="20" as="geometry" />
        </mxCell>
        <mxCell id="q8cD7jAWVQ_bWqAsikVx-21" value="0.5s" style="text;html=1;align=center;verticalAlign=middle;whiteSpace=wrap;rounded=0;" vertex="1" parent="1">
          <mxGeometry x="310" y="300" width="60" height="20" as="geometry" />
        </mxCell>
        <mxCell id="q8cD7jAWVQ_bWqAsikVx-22" value="0.5s" style="text;html=1;align=center;verticalAlign=middle;whiteSpace=wrap;rounded=0;" vertex="1" parent="1">
          <mxGeometry x="370" y="300" width="60" height="20" as="geometry" />
        </mxCell>
        <mxCell id="q8cD7jAWVQ_bWqAsikVx-23" value="0.5s" style="text;html=1;align=center;verticalAlign=middle;whiteSpace=wrap;rounded=0;" vertex="1" parent="1">
          <mxGeometry x="430" y="300" width="60" height="20" as="geometry" />
        </mxCell>
        <mxCell id="q8cD7jAWVQ_bWqAsikVx-24" value="0.5s" style="text;html=1;align=center;verticalAlign=middle;whiteSpace=wrap;rounded=0;" vertex="1" parent="1">
          <mxGeometry x="490" y="300" width="60" height="20" as="geometry" />
        </mxCell>
        <mxCell id="q8cD7jAWVQ_bWqAsikVx-25" value="0.5s" style="text;html=1;align=center;verticalAlign=middle;whiteSpace=wrap;rounded=0;" vertex="1" parent="1">
          <mxGeometry x="550" y="300" width="60" height="20" as="geometry" />
        </mxCell>
        <mxCell id="q8cD7jAWVQ_bWqAsikVx-26" value="0.5s" style="text;html=1;align=center;verticalAlign=middle;whiteSpace=wrap;rounded=0;" vertex="1" parent="1">
          <mxGeometry x="610" y="300" width="60" height="20" as="geometry" />
        </mxCell>
        <mxCell id="q8cD7jAWVQ_bWqAsikVx-27" value="" style="endArrow=classic;html=1;rounded=0;" edge="1" parent="1">
          <mxGeometry width="50" height="50" relative="1" as="geometry">
            <mxPoint x="120" y="440" as="sourcePoint" />
            <mxPoint x="680" y="440" as="targetPoint" />
          </mxGeometry>
        </mxCell>
        <mxCell id="q8cD7jAWVQ_bWqAsikVx-40" value="BUZ&lt;div&gt;1회&lt;/div&gt;" style="rounded=0;whiteSpace=wrap;html=1;align=left;flipV=1;flipH=1;" vertex="1" parent="1">
          <mxGeometry x="230" y="460" width="40" height="50" as="geometry" />
        </mxCell>
        <mxCell id="q8cD7jAWVQ_bWqAsikVx-42" value="ALL&lt;br&gt;&lt;div&gt;LED&lt;/div&gt;&lt;div&gt;OFF&lt;/div&gt;" style="rounded=0;whiteSpace=wrap;html=1;align=left;flipV=1;flipH=1;" vertex="1" parent="1">
          <mxGeometry x="410" y="460" width="40" height="50" as="geometry" />
        </mxCell>
        <mxCell id="q8cD7jAWVQ_bWqAsikVx-43" value="" style="endArrow=none;html=1;rounded=0;strokeColor=#FF0000;" edge="1" parent="1">
          <mxGeometry width="50" height="50" relative="1" as="geometry">
            <mxPoint x="429.99666666666667" y="430" as="sourcePoint" />
            <mxPoint x="430.23" y="450" as="targetPoint" />
          </mxGeometry>
        </mxCell>
        <mxCell id="q8cD7jAWVQ_bWqAsikVx-49" value="1s" style="text;html=1;align=center;verticalAlign=middle;whiteSpace=wrap;rounded=0;" vertex="1" parent="1">
          <mxGeometry x="370" y="420" width="60" height="20" as="geometry" />
        </mxCell>
        <mxCell id="q8cD7jAWVQ_bWqAsikVx-51" value="W/C&lt;br&gt;&lt;div&gt;LED&lt;/div&gt;&lt;div&gt;ON&lt;/div&gt;" style="rounded=0;whiteSpace=wrap;html=1;align=left;flipV=1;flipH=1;" vertex="1" parent="1">
          <mxGeometry x="110" y="460" width="40" height="50" as="geometry" />
        </mxCell>
        <mxCell id="q8cD7jAWVQ_bWqAsikVx-52" value="" style="endArrow=none;html=1;rounded=0;strokeColor=#FF0000;" edge="1" parent="1">
          <mxGeometry width="50" height="50" relative="1" as="geometry">
            <mxPoint x="129.76666666666665" y="430" as="sourcePoint" />
            <mxPoint x="129.76666666666665" y="450" as="targetPoint" />
          </mxGeometry>
        </mxCell>
        <mxCell id="q8cD7jAWVQ_bWqAsikVx-53" value="W/C&lt;br&gt;&lt;div&gt;LED&lt;/div&gt;&lt;div&gt;OFF&lt;/div&gt;" style="rounded=0;whiteSpace=wrap;html=1;align=left;flipV=1;flipH=1;" vertex="1" parent="1">
          <mxGeometry x="170" y="460" width="40" height="50" as="geometry" />
        </mxCell>
        <mxCell id="q8cD7jAWVQ_bWqAsikVx-54" value="" style="endArrow=none;html=1;rounded=0;strokeColor=#FF0000;" edge="1" parent="1">
          <mxGeometry width="50" height="50" relative="1" as="geometry">
            <mxPoint x="189.76666666666665" y="430" as="sourcePoint" />
            <mxPoint x="189.76666666666665" y="450" as="targetPoint" />
          </mxGeometry>
        </mxCell>
        <mxCell id="q8cD7jAWVQ_bWqAsikVx-55" value="" style="endArrow=none;html=1;rounded=0;strokeColor=#FF0000;" edge="1" parent="1">
          <mxGeometry width="50" height="50" relative="1" as="geometry">
            <mxPoint x="249.76666666666665" y="430" as="sourcePoint" />
            <mxPoint x="249.76666666666665" y="450" as="targetPoint" />
          </mxGeometry>
        </mxCell>
        <mxCell id="q8cD7jAWVQ_bWqAsikVx-56" value="0.5s" style="text;html=1;align=center;verticalAlign=middle;whiteSpace=wrap;rounded=0;" vertex="1" parent="1">
          <mxGeometry x="130" y="420" width="60" height="20" as="geometry" />
        </mxCell>
        <mxCell id="q8cD7jAWVQ_bWqAsikVx-57" value="0.5s" style="text;html=1;align=center;verticalAlign=middle;whiteSpace=wrap;rounded=0;" vertex="1" parent="1">
          <mxGeometry x="190" y="420" width="60" height="20" as="geometry" />
        </mxCell>
        <mxCell id="q8cD7jAWVQ_bWqAsikVx-58" value="BUZ&lt;div&gt;1회&lt;/div&gt;" style="rounded=0;whiteSpace=wrap;html=1;align=left;flipV=1;flipH=1;" vertex="1" parent="1">
          <mxGeometry x="290" y="460" width="40" height="50" as="geometry" />
        </mxCell>
        <mxCell id="q8cD7jAWVQ_bWqAsikVx-59" value="" style="endArrow=none;html=1;rounded=0;strokeColor=#FF0000;" edge="1" parent="1">
          <mxGeometry width="50" height="50" relative="1" as="geometry">
            <mxPoint x="309.76666666666665" y="430" as="sourcePoint" />
            <mxPoint x="309.76666666666665" y="450" as="targetPoint" />
          </mxGeometry>
        </mxCell>
        <mxCell id="q8cD7jAWVQ_bWqAsikVx-60" value="BUZ&lt;div&gt;1회&lt;/div&gt;" style="rounded=0;whiteSpace=wrap;html=1;align=left;flipV=1;flipH=1;" vertex="1" parent="1">
          <mxGeometry x="350" y="460" width="40" height="50" as="geometry" />
        </mxCell>
        <mxCell id="q8cD7jAWVQ_bWqAsikVx-61" value="" style="endArrow=none;html=1;rounded=0;strokeColor=#FF0000;" edge="1" parent="1">
          <mxGeometry width="50" height="50" relative="1" as="geometry">
            <mxPoint x="369.76666666666665" y="430" as="sourcePoint" />
            <mxPoint x="369.76666666666665" y="450" as="targetPoint" />
          </mxGeometry>
        </mxCell>
        <mxCell id="q8cD7jAWVQ_bWqAsikVx-62" value="0.5s" style="text;html=1;align=center;verticalAlign=middle;whiteSpace=wrap;rounded=0;" vertex="1" parent="1">
          <mxGeometry x="250" y="420" width="60" height="20" as="geometry" />
        </mxCell>
        <mxCell id="q8cD7jAWVQ_bWqAsikVx-63" value="0.5s" style="text;html=1;align=center;verticalAlign=middle;whiteSpace=wrap;rounded=0;" vertex="1" parent="1">
          <mxGeometry x="310" y="420" width="60" height="20" as="geometry" />
        </mxCell>
      </root>
    </mxGraphModel>
  </diagram>
</mxfile>
